<svg width="4" height="8" viewBox="0 0 4 8" fill="none" xmlns="http://www.w3.org/2000/svg">
<path d="M0.280011 3.79244C0.292857 3.93544 0.345228 4.07084 0.430207 4.17959L2.70685 7.10282C2.81406 7.25018 2.97117 7.34317 3.14163 7.36057C3.31208 7.37797 3.48154 7.3187 3.61198 7.19635C3.74192 7.07346 3.82146 6.89838 3.83184 6.71023C3.84222 6.52209 3.78293 6.33721 3.66732 6.19801L1.74241 3.72718L3.66732 1.25636C3.78293 1.11716 3.84221 0.932282 3.83184 0.744138C3.82147 0.555993 3.74192 0.380905 3.61198 0.258018C3.48156 0.135673 3.31209 0.076402 3.14163 0.0938021C2.97117 0.111202 2.81407 0.204185 2.70685 0.351548L0.430207 3.27478C0.318549 3.41778 0.264695 3.60484 0.280011 3.79244Z" fill="white"/>
</svg>
