<svg viewBox="0 0 15 8" fill="none" xmlns="http://www.w3.org/2000/svg">
<path d="M7.63459 7.99424C7.92954 7.96534 8.2088 7.84751 8.43308 7.6563L14.4622 2.53385C14.7662 2.29262 14.958 1.93913 14.9938 1.5556C15.0297 1.17208 14.9075 0.790795 14.6552 0.497307C14.4017 0.204957 14.0406 0.0259842 13.6525 0.00262014C13.2645 -0.0207243 12.8832 0.112673 12.5961 0.372803L7.5 4.70383L2.40392 0.372803C2.11682 0.112679 1.73552 -0.0207155 1.34747 0.00262014C0.959418 0.0259646 0.5983 0.20494 0.344846 0.497307C0.092508 0.790766 -0.0297378 1.17208 0.00615007 1.5556C0.042038 1.93913 0.233814 2.29261 0.53775 2.53385L6.56691 7.6563C6.86186 7.90753 7.24767 8.0287 7.63459 7.99424Z" fill="white"/>
</svg>
