<svg width="13" height="13" viewBox="0 0 13 13" fill="none" xmlns="http://www.w3.org/2000/svg">
<path d="M12.8475 12.1005L7.24494 6.50284L12.8475 0.899903C13.0508 0.697196 13.0508 0.369906 12.8475 0.1672C12.6443 -0.0355068 12.3161 -0.0355068 12.1129 0.1672L6.505 5.76487L0.89238 0.156659C0.689132 -0.0513314 0.355684 -0.0513314 0.152436 0.15138C-0.050812 0.354092 -0.050812 0.681377 0.152436 0.884083L5.77034 6.49757L0.152436 12.1163C-0.050812 12.319 -0.050812 12.6463 0.152436 12.849C0.256706 12.9477 0.386916 13 0.522415 13C0.657913 13 0.788114 12.9483 0.892393 12.849L6.50501 7.23554L12.1076 12.8332C12.2119 12.9372 12.3421 12.9842 12.4776 12.9842C12.6131 12.9842 12.7433 12.9325 12.8476 12.8332C13.0508 12.6363 13.0508 12.3032 12.8475 12.1005Z" fill="black"/>
</svg>
