<?xml version="1.0" encoding="UTF-8"?>
<svg id="Layer_1" data-name="Layer 1" xmlns="http://www.w3.org/2000/svg" viewBox="0 0 946.3 513.93">
  <defs>
    <style>
      .cls-1 {
        fill: #1d1d1b;
      }

      .cls-1, .cls-2, .cls-3 {
        stroke-width: 0px;
      }

      .cls-2 {
        fill: #43332f;
      }

      .cls-3 {
        fill: #eb2426;
      }
    </style>
  </defs>
  <g>
    <path class="cls-3" d="M400.41,276.13v122.42h-10.67l-78.7-99.33v99.33h-12.94v-122.42h10.67l78.87,99.34v-99.34h12.77Z"/>
    <path class="cls-3" d="M481.56,287.32h-43.02v-11.19h98.98v11.19h-43.02v111.23h-12.94v-111.23Z"/>
    <path class="cls-3" d="M796.26,344.96l12.42-12.07v51.14c-5.71,5.01-12.48,8.86-20.29,11.54-7.81,2.68-16.03,4.02-24.66,4.02-12.24,0-23.26-2.68-33.05-8.05-9.79-5.36-17.49-12.79-23.08-22.3-5.6-9.5-8.4-20.14-8.4-31.92s2.8-22.41,8.4-31.92c5.6-9.5,13.29-16.93,23.08-22.3,9.79-5.36,20.87-8.04,33.23-8.04,9.33,0,17.9,1.49,25.71,4.46,7.81,2.97,14.4,7.37,19.76,13.2l-8.05,8.22c-9.68-9.56-21.98-14.34-36.9-14.34-9.91,0-18.86,2.19-26.85,6.56-7.99,4.37-14.25,10.44-18.8,18.19-4.55,7.75-6.82,16.41-6.82,25.97s2.27,18.19,6.82,25.88c4.55,7.7,10.78,13.76,18.71,18.19,7.93,4.43,16.85,6.65,26.76,6.65,12.59,0,23.26-3.15,32-9.44v-33.65Z"/>
    <path class="cls-3" d="M946.3,387.35v11.19h-86.57v-122.42h83.94v11.19h-71v43.55h63.31v11.02h-63.31v45.47h73.63Z"/>
    <path class="cls-3" d="M232.39,366.1h-68.26l-14.7,32.73h-13.48l56.01-122.52h12.78l56.01,122.52h-13.65l-14.7-32.73ZM227.66,355.6l-29.4-65.81-29.4,65.81h58.81Z"/>
    <path class="cls-3" d="M647.26,366.1h-68.26l-14.7,32.73h-13.48l56.01-122.52h12.78l56.01,122.52h-13.65l-14.7-32.73ZM642.53,355.6l-29.4-65.81-29.4,65.81h58.81Z"/>
    <path class="cls-3" d="M121.29,276.31l-54.26,122.52h-12.78L0,276.31h14l46.91,106.41,47.26-106.41h13.13Z"/>
  </g>
  <path class="cls-2" d="M473.15,0c-52.27,0-94.64,42.37-94.64,94.64s42.37,94.64,94.64,94.64,94.64-42.37,94.64-94.64S525.42,0,473.15,0ZM512.91,83.87c-6.28-7.39-14.98-12.66-24.88-14.58v-31.13c15.4,3.74,26.83,17.61,26.83,34.16,0,4.05-.69,7.93-1.95,11.55ZM514.86,112.05c0,16.57-11.46,30.45-26.89,34.18v-31.13c9.92-1.91,18.65-7.18,24.94-14.59,1.26,3.62,1.95,7.5,1.95,11.55ZM479.7,4.29v72.59h0c12.05,0,22.68,6.06,29.01,15.3-6.34,9.24-16.97,15.3-29.01,15.3h0s-.06,0-.06,0v39.8h-12.44v-39.8h0c-12.05,0-22.68-6.07-29.01-15.3,6.34-9.24,16.97-15.3,29.01-15.3h0s.06,0,.06,0V4.25c1.95-.12,3.91-.2,5.89-.2,2.2,0,4.39.08,6.55.24ZM433.99,100.5c6.28,7.39,14.98,12.66,24.88,14.58v31.13c-15.4-3.74-26.83-17.61-26.83-34.16,0-4.05.69-7.93,1.95-11.55ZM432.04,72.32c0-16.57,11.46-30.45,26.89-34.18v31.13c-9.92,1.91-18.65,7.18-24.94,14.59-1.26-3.62-1.95-7.5-1.95-11.55ZM382.56,94.64c0-45.19,33.09-82.65,76.37-89.47v24.38c-20.1,3.87-35.29,21.54-35.29,42.77,0,7.16,1.74,13.91,4.8,19.87-3.06,5.96-4.8,12.71-4.8,19.87,0,21.21,15.16,38.87,35.24,42.76v29.29c-43.25-6.85-76.31-44.29-76.31-89.46ZM467.2,185.03v-29.41h12.44v29.38c-2.14.15-4.31.23-6.49.23-2,0-3.98-.07-5.94-.2ZM487.98,184.01v-29.19c20.1-3.87,35.29-21.54,35.29-42.77,0-7.16-1.74-13.91-4.8-19.87,3.06-5.96,4.8-12.71,4.8-19.87,0-21.21-15.16-38.87-35.24-42.76V5.28c42.95,7.1,75.7,44.4,75.7,89.36s-32.79,82.3-75.76,89.37Z"/>
  <g>
    <path class="cls-1" d="M329.15,477.5h4.21v35.52h-4.21v-35.52Z"/>
    <path class="cls-1" d="M344.7,477.5h5.32l20.57,29.5h.1v-29.5h4.21v35.52h-5.32l-20.57-29.5h-.1v29.5h-4.21v-35.52Z"/>
    <path class="cls-1" d="M386.25,477.5h22.03v3.91h-17.81v11.74h16.56v3.91h-16.56v15.96h-4.21v-35.52Z"/>
    <path class="cls-1" d="M416.65,477.5h4.21v31.61h16.26v3.91h-20.47v-35.52Z"/>
    <path class="cls-1" d="M470.89,499.48c0,1.94-.24,3.78-.73,5.52-.49,1.74-1.25,3.27-2.31,4.59s-2.43,2.38-4.14,3.16c-1.71.79-3.78,1.18-6.22,1.18s-4.52-.39-6.22-1.18c-1.71-.79-3.08-1.84-4.14-3.16s-1.82-2.85-2.31-4.59c-.49-1.74-.73-3.58-.73-5.52v-21.98h4.21v21.38c0,1.44.15,2.83.45,4.17.3,1.34.8,2.53,1.5,3.56.7,1.04,1.64,1.87,2.81,2.48s2.64.93,4.42.93,3.24-.31,4.42-.93c1.17-.62,2.11-1.45,2.81-2.48.7-1.04,1.2-2.22,1.51-3.56.3-1.34.45-2.73.45-4.17v-21.38h4.21v21.98Z"/>
    <path class="cls-1" d="M482.08,477.5h22.33v3.91h-18.11v11.14h16.91v3.91h-16.91v12.64h19.02v3.91h-23.23v-35.52Z"/>
    <path class="cls-1" d="M514.34,477.5h5.32l20.57,29.5h.1v-29.5h4.21v35.52h-5.32l-20.57-29.5h-.1v29.5h-4.21v-35.52Z"/>
    <path class="cls-1" d="M580.77,484.83c-1.07-1.44-2.39-2.52-3.96-3.24-1.57-.72-3.21-1.08-4.92-1.08-1.97,0-3.79.4-5.44,1.2-1.66.8-3.09,1.88-4.29,3.24-1.2,1.36-2.14,2.93-2.81,4.72-.67,1.79-1,3.66-1,5.59,0,2.07.33,4.01,1,5.79.67,1.79,1.6,3.35,2.78,4.67,1.19,1.32,2.61,2.37,4.26,3.14,1.66.77,3.49,1.15,5.49,1.15,2.17,0,4.11-.43,5.82-1.28,1.71-.85,3.19-2.08,4.47-3.69l3.16,2.66c-1.61,2.14-3.54,3.71-5.79,4.72-2.26,1-4.81,1.51-7.65,1.51-2.54,0-4.92-.47-7.12-1.41-2.21-.94-4.12-2.23-5.75-3.89-1.62-1.66-2.89-3.62-3.81-5.9-.92-2.27-1.38-4.77-1.38-7.48s.44-5.05,1.33-7.33c.89-2.27,2.13-4.25,3.74-5.92s3.51-2.99,5.72-3.96c2.21-.97,4.63-1.46,7.28-1.46,2.41,0,4.72.43,6.95,1.3,2.22.87,4.09,2.29,5.59,4.27l-3.66,2.66Z"/>
    <path class="cls-1" d="M593.72,477.5h22.33v3.91h-18.11v11.14h16.91v3.91h-16.91v12.64h19.02v3.91h-23.23v-35.52Z"/>
  </g>
</svg>