<svg viewBox="0 0 208 88" fill="none" xmlns="http://www.w3.org/2000/svg">
<path d="M88.0115 60.6749V87.5747H85.6662L68.3677 65.7486V87.5747H65.5234V60.6749H67.8687L85.2046 82.5032V60.6749H88.0115Z" fill="#25272D"/>
<path d="M105.849 63.1337H96.3926V60.6749H118.149V63.1337H108.693V87.5747H105.849V63.1337Z" fill="#25272D"/>
<path d="M175.021 75.7992L177.751 73.147V84.3841C176.496 85.485 175.008 86.331 173.291 86.9199C171.574 87.5088 169.767 87.8032 167.87 87.8032C165.18 87.8032 162.758 87.2143 160.606 86.0343C158.454 84.8566 156.762 83.2239 155.533 81.1343C154.302 79.0468 153.687 76.7089 153.687 74.1204C153.687 71.5319 154.302 69.1962 155.533 67.1065C156.764 65.0191 158.454 63.3864 160.606 62.2065C162.758 61.0287 165.193 60.4398 167.91 60.4398C169.961 60.4398 171.845 60.7672 173.561 61.4198C175.278 62.0724 176.726 63.0393 177.905 64.3203L176.135 66.1265C174.007 64.0259 171.304 62.9755 168.024 62.9755C165.846 62.9755 163.879 63.4568 162.123 64.417C160.366 65.3772 158.99 66.711 157.99 68.4139C156.99 70.1169 156.491 72.0198 156.491 74.1204C156.491 76.2211 156.99 78.1174 157.99 79.8071C158.99 81.4991 160.36 82.8306 162.103 83.8041C163.846 84.7775 165.807 85.2653 167.985 85.2653C170.752 85.2653 173.097 84.5731 175.018 83.191V75.797L175.021 75.7992Z" fill="#25272D"/>
<path d="M208 85.1137V87.5725H188.972V60.6727H207.422V63.1315H191.816V72.7009H205.732V75.1224H191.816V85.1137H208Z" fill="#25272D"/>
<path d="M51.0801 80.4443H36.0763L32.8452 87.6362H29.8823L42.1935 60.7145H45.0026L57.3137 87.6362H54.3134L51.0823 80.4443H51.0801ZM50.0405 78.1371L43.5782 63.6765L37.116 78.1371H50.0427H50.0405Z" fill="#25272D"/>
<path d="M142.27 80.4443H127.266L124.035 87.6362H121.072L133.383 60.7145H136.192L148.504 87.6362H145.503L142.272 80.4443H142.27ZM141.23 78.1371L134.768 63.6765L128.306 78.1371H141.232H141.23Z" fill="#25272D"/>
<path d="M26.66 60.7145L14.7334 87.6362H11.9243L0 60.7145H3.07725L13.3882 84.0963L23.7761 60.7145H26.6622H26.66Z" fill="#25272D"/>
<path d="M104 0C92.5109 0 83.1978 9.3101 83.1978 20.7956C83.1978 32.281 92.5109 41.5911 104 41.5911C115.489 41.5911 124.802 32.281 124.802 20.7956C124.802 9.3101 115.489 0 104 0ZM112.739 18.429C111.359 16.8052 109.447 15.6472 107.271 15.2253V8.38502C110.656 9.20682 113.168 12.2545 113.168 15.8911C113.168 16.781 113.016 17.6336 112.739 18.429ZM113.168 24.6211C113.168 28.2621 110.649 31.312 107.257 32.1316V25.2913C109.438 24.8716 111.357 23.7136 112.739 22.0854C113.016 22.8808 113.168 23.7334 113.168 24.6233V24.6211ZM105.44 0.942655V16.8931C108.088 16.8931 110.425 18.2247 111.816 20.255C110.423 22.2853 108.086 23.6169 105.44 23.6169H105.427V32.3623H102.692V23.6169C100.044 23.6169 97.707 22.2831 96.3157 20.255C97.7092 18.2247 100.046 16.8931 102.692 16.8931H102.705V0.933866C103.134 0.907498 103.565 0.88992 104 0.88992C104.484 0.88992 104.965 0.907498 105.44 0.942655ZM95.3925 22.0832C96.7729 23.707 98.6852 24.865 100.861 25.2869V32.1272C97.4762 31.3054 94.9639 28.2577 94.9639 24.6211C94.9639 23.7312 95.1155 22.8786 95.3925 22.0832ZM94.9639 15.8911C94.9639 12.2501 97.4828 9.20023 100.874 8.38062V15.2209C98.6939 15.6406 96.7751 16.7986 95.3925 18.4268C95.1155 17.6314 94.9639 16.7788 94.9639 15.8889V15.8911ZM84.088 20.7956C84.088 10.8658 91.3613 2.6346 100.874 1.13602V6.49312C96.4563 7.34348 93.1175 11.2262 93.1175 15.8911C93.1175 17.4644 93.5 18.9476 94.1726 20.2572C93.5 21.5668 93.1175 23.05 93.1175 24.6233C93.1175 29.2838 96.4498 33.1643 100.863 34.0191V40.4551C91.3569 38.9499 84.0902 30.7231 84.0902 20.7977L84.088 20.7956ZM102.692 40.6572V34.1949H105.427V40.6506C104.956 40.6836 104.479 40.7012 104 40.7012C103.56 40.7012 103.125 40.6858 102.694 40.6572H102.692ZM107.26 40.4331V34.0191C111.678 33.1687 115.017 29.286 115.017 24.6211C115.017 23.0478 114.634 21.5646 113.961 20.255C114.634 18.9454 115.017 17.4622 115.017 15.8889C115.017 11.2284 111.684 7.34788 107.271 6.49312V1.16019C116.711 2.7203 123.91 10.9163 123.91 20.7956C123.91 30.6748 116.702 38.8796 107.257 40.4331H107.26Z" fill="#25272D"/>
</svg>
