<svg  viewBox="0 0 40 40" fill="none" xmlns="http://www.w3.org/2000/svg">
    <path transform="translate(-64 3)" fill-rule="evenodd" clip-rule="evenodd" d="M66.6513 16.3788C66.6513 7.33272 73.9706 0 83 0C92.0294 0 99.3486 7.33272 99.3486 16.3788C99.3486 25.4248 92.0294 32.7576 83 32.7576C73.9706 32.7576 66.6513 25.4248 66.6513 16.3788ZM85.5704 11.9916C87.2806 12.3239 88.7835 13.2359 89.8684 14.5149C90.086 13.8884 90.2052 13.2169 90.2052 12.516C90.2052 9.65178 88.2307 7.25138 85.5704 6.60412V11.9916ZM85.5601 25.3072C88.2253 24.6617 90.2048 22.26 90.2052 19.3927C90.2051 18.6921 90.0859 18.0209 89.8684 17.3947C88.7818 18.6771 87.2737 19.5891 85.5601 19.9197V25.3072ZM84.1315 13.3052V0.742445C83.7583 0.714754 83.38 0.700909 83 0.700909C82.658 0.700909 82.3194 0.714754 81.9825 0.735522V13.3052H81.9722C79.8923 13.3052 78.056 14.3539 76.9608 15.953C78.0543 17.5504 79.8906 18.6009 81.9722 18.6009V25.4889H84.1211V18.6009H84.1315C86.2113 18.6009 88.0476 17.5522 89.1428 15.953C88.0493 14.3539 86.2131 13.3052 84.1315 13.3052ZM80.5332 19.9162C78.823 19.5839 77.3201 18.6719 76.2353 17.3929C76.0176 18.0194 75.8984 18.6909 75.8984 19.3918C75.8984 22.256 77.8729 24.6564 80.5332 25.3037V19.9162ZM80.5435 6.60066C77.8783 7.24613 75.8988 9.64784 75.8984 12.5151C75.8985 13.2157 76.0177 13.8869 76.2353 14.5132C77.3218 13.2307 78.8299 12.3187 80.5435 11.9881V6.60066ZM80.5435 0.894741C73.0671 2.07504 67.351 8.55802 67.351 16.3788L67.3527 16.3805C67.3527 24.1978 73.0637 30.6773 80.5349 31.8628V26.7938C77.0662 26.1206 74.4474 23.0642 74.4474 19.3936C74.4474 18.1544 74.7479 16.9862 75.2765 15.9548C74.7479 14.9233 74.4474 13.7551 74.4474 12.516C74.4474 8.84184 77.0714 5.7838 80.5435 5.11404V0.894741ZM81.9722 26.9322V32.022H81.9739C82.3125 32.0445 82.6545 32.0567 83 32.0567C83.3766 32.0567 83.7514 32.0428 84.1211 32.0168V26.9322H81.9722ZM85.5618 31.8452V26.7938C89.034 26.124 91.658 23.066 91.658 19.3918C91.658 18.1527 91.3574 16.9845 90.8288 15.953C91.3574 14.9216 91.658 13.7534 91.658 12.5143C91.658 8.84357 89.0392 5.78726 85.5704 5.11404V0.913778C92.9899 2.14253 98.6473 8.59782 98.6473 16.3788C98.6473 24.1591 92.9838 30.6209 85.5618 31.8452ZM138.816 59.7003L140.961 57.6114V66.4619C139.975 67.329 138.805 67.9953 137.456 68.4591C136.107 68.9229 134.687 69.1548 133.196 69.1548C131.082 69.1548 129.178 68.691 127.487 67.7616C125.796 66.834 124.466 65.5481 123.5 63.9023C122.533 62.2582 122.049 60.4168 122.049 58.3781C122.049 56.3394 122.533 54.4997 123.5 52.8539C124.468 51.2098 125.796 49.9239 127.487 48.9946C129.178 48.0669 131.092 47.6031 133.227 47.6031C134.839 47.6031 136.32 47.861 137.669 48.375C139.018 48.889 140.156 49.6505 141.082 50.6594L139.692 52.082C138.019 50.4275 135.895 49.6003 133.317 49.6003C131.605 49.6003 130.059 49.9793 128.679 50.7356C127.299 51.4919 126.217 52.5424 125.431 53.8836C124.646 55.2249 124.253 56.7236 124.253 58.3781C124.253 60.0326 124.646 61.5261 125.431 62.857C126.217 64.1878 127.294 65.2383 128.664 66.005C130.033 66.7717 131.574 67.1559 133.286 67.1559C135.461 67.1559 137.304 66.6107 138.814 65.5222V59.6986L138.816 59.7003ZM70.4344 68.975V47.7885H68.2285V64.9807L54.604 47.7885H52.7608V68.975H54.9961V51.7846L68.5912 68.975H70.4344ZM77.0212 49.7251H84.4528V68.975H86.6881V49.7251H94.1196V47.7885H77.0212V49.7251ZM164.735 68.9731V67.0365H152.015V59.1673H162.952V57.2601H152.015V49.7232H164.28V47.7866H149.78V68.9731H164.735ZM41.4098 63.3589H29.6181L27.0788 69.0232H24.7502L34.4257 47.8194H36.6333L46.3088 69.0232H43.9508L41.4115 63.3589H41.4098ZM40.5927 61.5417L35.5139 50.1523L30.4352 61.5417H40.5927ZM101.285 63.3589H113.077H113.078L115.618 69.0232H117.976L108.3 47.8194H106.093L96.4171 69.0232H98.7458L101.285 63.3589ZM107.181 50.1523L112.26 61.5417H102.102L107.181 50.1523ZM22.2177 47.8194L12.8445 69.0232H10.6368L1.26538 47.8194H3.68382L11.7873 66.2352L19.9513 47.8194H22.2177ZM60.455 83.7995C60.334 83.6039 60.1734 83.4603 59.9713 83.372C59.7692 83.282 59.5601 83.237 59.3408 83.237C59.1801 83.237 59.0212 83.2578 58.8657 83.2976C58.7102 83.3374 58.5703 83.398 58.4477 83.4793C58.3233 83.5607 58.2248 83.6662 58.1488 83.7995C58.0745 83.9327 58.0365 84.0885 58.0365 84.2668C58.0365 84.4052 58.0573 84.5281 58.1022 84.6337C58.1454 84.741 58.2162 84.8361 58.3129 84.9227C58.4114 85.0092 58.5427 85.0905 58.7102 85.165C58.8778 85.2394 59.0816 85.3155 59.3235 85.3899C59.5601 85.4644 59.7882 85.5457 60.011 85.6322C60.2321 85.7188 60.4291 85.8278 60.5984 85.9611C60.7676 86.0943 60.9041 86.2605 61.0043 86.4595C61.1045 86.6585 61.1563 86.9077 61.1563 87.2089C61.1563 87.51 61.0959 87.78 60.9749 88.005C60.854 88.2299 60.6951 88.4168 60.4947 88.5622C60.296 88.7093 60.068 88.8183 59.8089 88.891C59.5498 88.9637 59.282 88.9983 59.0056 88.9983C58.8277 88.9983 58.648 88.9827 58.4701 88.9499C58.2922 88.9187 58.1194 88.8685 57.9553 88.8028C57.7912 88.737 57.6375 88.6505 57.4924 88.5432C57.349 88.4359 57.2246 88.3043 57.121 88.1486L57.7429 87.6381C57.8759 87.863 58.059 88.0326 58.2957 88.1486C58.5323 88.2645 58.7828 88.3217 59.0471 88.3217C59.2026 88.3217 59.3598 88.2992 59.5187 88.2524C59.6776 88.2057 59.8193 88.1382 59.9471 88.0499C60.0732 87.9599 60.1768 87.8492 60.258 87.7177C60.3392 87.5844 60.379 87.4321 60.379 87.259C60.379 87.0687 60.3479 86.9146 60.284 86.797C60.22 86.6793 60.1233 86.5772 59.9903 86.4906C59.8573 86.4041 59.6914 86.3262 59.4893 86.257C59.2872 86.1878 59.0523 86.1064 58.7811 86.0147C58.5617 85.9455 58.3613 85.8659 58.1765 85.7759C57.9916 85.6859 57.8327 85.5769 57.6979 85.4471C57.5632 85.3173 57.4561 85.1615 57.3784 84.9798C57.3006 84.7981 57.2626 84.58 57.2626 84.3273C57.2626 84.0331 57.3196 83.777 57.4354 83.5572C57.5511 83.3374 57.7066 83.154 57.9018 83.0086C58.097 82.8615 58.3198 82.7507 58.5669 82.6746C58.8139 82.6002 59.073 82.5621 59.3442 82.5621C59.6897 82.5621 60.0058 82.6157 60.2909 82.7213C60.5759 82.8286 60.8298 83.0138 61.0544 83.2786L60.4584 83.7978L60.455 83.7995ZM64.7823 83.3926H66.8034V82.7177H62.0356V83.3926H64.0567V88.8441H64.7823V83.3926ZM68.004 82.7179H69.5673C69.861 82.7179 70.1529 82.7352 70.4432 82.7699C70.7334 82.8045 70.9942 82.8789 71.224 82.9948C71.4537 83.1108 71.642 83.2787 71.7854 83.5002C71.9288 83.7217 72.0013 84.0246 72.0013 84.4036C72.0013 84.8535 71.8666 85.217 71.5954 85.4939C71.3242 85.7708 70.951 85.9473 70.4725 86.0217L72.2086 88.8427H71.319L69.6606 86.091H68.7278V88.8427H68.0023V82.7162L68.004 82.7179ZM68.7295 85.4177H69.3773C69.5794 85.4177 69.7885 85.4125 70.0027 85.4004C70.2186 85.3883 70.4172 85.352 70.5986 85.2879C70.78 85.2239 70.9303 85.1253 71.0478 84.9885C71.1652 84.8535 71.224 84.658 71.224 84.4036C71.224 84.1838 71.1808 84.009 71.0944 83.8757C71.008 83.7425 70.894 83.6404 70.7541 83.5694C70.6124 83.4967 70.4552 83.45 70.2791 83.4258C70.1029 83.4033 69.9266 83.3912 69.747 83.3912H68.7278V85.416L68.7295 85.4177ZM76.2958 82.7177H75.6134L72.9186 88.8441H73.7391L74.3696 87.3385H77.4272L78.0491 88.8441H78.8956L76.2958 82.7177ZM75.9243 83.6522H75.9416L77.1508 86.6635H74.6547L75.9243 83.6522ZM83.3611 83.3926H81.3399V88.8441H80.6144V83.3926H78.5933V82.7177H83.3611V83.3926ZM88.4052 82.7177H84.5616V88.8441H88.5607V88.1692H85.2872V85.9886H88.1979V85.3136H85.2872V83.3926H88.4052V82.7177ZM95.2287 88.4288C94.878 88.6244 94.5084 88.7698 94.1197 88.8615C93.731 88.9532 93.3372 89 92.9398 89C92.4613 89 92.0243 88.9221 91.627 88.7663C91.2297 88.6106 90.8859 88.3908 90.5939 88.1087C90.3037 87.8266 90.0774 87.4874 89.9168 87.0911C89.7561 86.6965 89.6749 86.2586 89.6749 85.7792C89.6749 85.2999 89.7596 84.8551 89.9306 84.4605C90.0999 84.0659 90.3348 83.7284 90.6337 83.4481C90.9325 83.1677 91.2815 82.9496 91.6788 82.7939C92.0761 82.6381 92.5045 82.5602 92.9658 82.5602C93.3682 82.5602 93.7569 82.6208 94.1283 82.742C94.4997 82.8631 94.8331 83.0708 95.1251 83.365L94.5809 83.9361C94.3736 83.7111 94.1214 83.5381 93.8243 83.4169C93.5272 83.2958 93.2231 83.2352 92.9139 83.2352C92.5632 83.2352 92.2368 83.2992 91.9379 83.4256C91.6391 83.5519 91.3782 83.7284 91.1554 83.9534C90.9325 84.1784 90.7615 84.4466 90.6371 84.7582C90.5128 85.0697 90.4523 85.4106 90.4523 85.7792C90.4523 86.1479 90.5145 86.4801 90.6371 86.7917C90.7615 87.1032 90.9343 87.3732 91.1554 87.5999C91.3765 87.8283 91.6442 88.0048 91.9535 88.1329C92.2644 88.2592 92.6064 88.3233 92.9813 88.3233C93.2283 88.3233 93.4874 88.2939 93.7586 88.2316C94.0299 88.171 94.2769 88.0827 94.5014 87.9685V86.0908H93.0936V85.4158H95.227V88.4271L95.2287 88.4288ZM97.8199 82.7177H97.0943V88.8441H97.8199V82.7177ZM99.6855 82.7177H103.529V83.3926H100.411V85.3136H103.322V85.9886H100.411V88.1692H103.685V88.8441H99.6855V82.7177ZM107.571 83.3721C107.774 83.4604 107.934 83.604 108.055 83.7996L108.059 83.7979L108.655 83.2787C108.43 83.0139 108.176 82.8287 107.891 82.7214C107.606 82.6158 107.29 82.5622 106.944 82.5622C106.673 82.5622 106.414 82.6003 106.167 82.6747C105.92 82.7508 105.697 82.8616 105.502 83.0087C105.307 83.1541 105.151 83.3375 105.035 83.5573C104.92 83.7771 104.863 84.0332 104.863 84.3274C104.863 84.5801 104.901 84.7982 104.978 84.9799C105.056 85.1616 105.163 85.3174 105.298 85.4472C105.433 85.577 105.592 85.686 105.777 85.776C105.961 85.866 106.162 85.9456 106.381 86.0148C106.487 86.0507 106.588 86.0849 106.683 86.1175C106.831 86.1683 106.966 86.2149 107.089 86.2571C107.292 86.3263 107.457 86.4042 107.59 86.4907C107.723 86.5773 107.82 86.6794 107.884 86.7971C107.948 86.9147 107.979 87.0688 107.979 87.2591C107.979 87.4322 107.939 87.5845 107.858 87.7178C107.777 87.8493 107.673 87.96 107.547 88.05C107.419 88.1383 107.278 88.2058 107.119 88.2525C106.96 88.2992 106.803 88.3217 106.647 88.3217C106.383 88.3217 106.132 88.2646 105.896 88.1487C105.659 88.0327 105.476 87.8631 105.343 87.6381L104.721 88.1487C104.825 88.3044 104.949 88.436 105.092 88.5433C105.238 88.6506 105.391 88.7371 105.555 88.8029C105.72 88.8686 105.892 88.9188 106.07 88.95C106.248 88.9828 106.428 88.9984 106.606 88.9984C106.882 88.9984 107.15 88.9638 107.409 88.8911C107.668 88.8184 107.896 88.7094 108.095 88.5623C108.295 88.4169 108.454 88.23 108.575 88.005C108.696 87.7801 108.756 87.5101 108.756 87.2089C108.756 86.9078 108.705 86.6586 108.604 86.4596C108.504 86.2606 108.368 86.0944 108.198 85.9612C108.029 85.8279 107.832 85.7189 107.611 85.6323C107.388 85.5458 107.16 85.4645 106.924 85.39C106.682 85.3156 106.478 85.2395 106.31 85.1651C106.143 85.0906 106.011 85.0093 105.913 84.9228C105.816 84.8362 105.745 84.7411 105.702 84.6338C105.657 84.5282 105.637 84.4053 105.637 84.2669C105.637 84.0886 105.675 83.9328 105.749 83.7996C105.825 83.6663 105.923 83.5608 106.048 83.4794C106.17 83.3981 106.31 83.3375 106.466 83.2977C106.621 83.2579 106.78 83.2371 106.941 83.2371C107.16 83.2371 107.369 83.2821 107.571 83.3721Z" fill="white"/>
</svg>
