<svg width="16" height="16" viewBox="0 0 16 16" fill="none" xmlns="http://www.w3.org/2000/svg">
<path fill-rule="evenodd" clip-rule="evenodd" d="M3.3998 12.8675C6.03204 15.4997 10.3004 15.4997 12.9326 12.8675C15.5649 10.2352 15.5649 5.96687 12.9326 3.33463C10.3004 0.702387 6.03204 0.702387 3.3998 3.33463C0.767557 5.96687 0.767557 10.2345 3.3998 12.8675ZM11.5233 7.72126C12.0233 7.72126 12.0233 8.48077 11.5233 8.48077H8.54601V11.4573C8.54601 11.9573 7.78651 11.9573 7.78651 11.4573V8.48002H4.80994C4.30993 8.48002 4.30993 7.72051 4.80994 7.72051H7.78651V4.74394C7.78651 4.24394 8.54601 4.24394 8.54601 4.74394V7.72051L11.5233 7.72126ZM8.1665 15.6006C4.0239 15.6006 0.666504 12.2432 0.666504 8.10058C0.666504 3.95798 4.0239 0.600586 8.1665 0.600586C12.3091 0.600586 15.6665 3.95872 15.6665 8.10058C15.6665 12.2432 12.3091 15.6006 8.1665 15.6006Z" fill="#EC6A06"/>
</svg>
