<?xml version="1.0" standalone="no"?>
<!DOCTYPE svg PUBLIC "-//W3C//DTD SVG 20010904//EN"
 "http://www.w3.org/TR/2001/REC-SVG-20010904/DTD/svg10.dtd">
<svg version="1.0" xmlns="http://www.w3.org/2000/svg"
 width="544.000000pt" height="544.000000pt" viewBox="0 0 544.000000 544.000000"
 preserveAspectRatio="xMidYMid meet">
<metadata>
Created by potrace 1.14, written by Peter Selinger 2001-2017
</metadata>
<g transform="translate(0.000000,544.000000) scale(0.100000,-0.100000)"
fill="#000000" stroke="none">
<path d="M2509 5356 c-2 -2 -36 -7 -75 -10 -39 -4 -80 -8 -90 -10 -11 -2 -39
-7 -64 -11 -152 -24 -445 -107 -570 -161 -95 -42 -305 -148 -308 -156 -2 -4
-8 -8 -14 -8 -22 0 -223 -139 -367 -255 -66 -53 -305 -300 -367 -380 -81 -103
-197 -278 -234 -350 -14 -28 -27 -52 -30 -55 -9 -9 -75 -151 -115 -245 -52
-124 -131 -405 -151 -537 -2 -15 -6 -43 -9 -60 -6 -37 -15 -119 -20 -188 -5
-56 -5 -331 -1 -385 5 -63 18 -178 22 -200 2 -11 6 -36 10 -55 3 -19 15 -75
26 -125 11 -49 21 -94 22 -100 1 -5 11 -37 21 -70 10 -33 19 -64 20 -70 9 -41
87 -232 137 -333 329 -675 925 -1174 1653 -1381 39 -11 106 -27 150 -36 44 -9
87 -18 96 -20 9 -2 40 -6 70 -10 30 -3 61 -8 69 -10 29 -9 175 -17 310 -18
171 0 284 8 433 34 32 6 70 12 85 14 15 2 37 7 50 10 12 3 30 7 40 9 120 28
245 67 372 117 86 34 310 144 365 179 17 11 36 23 43 26 20 10 143 93 181 123
342 263 586 550 769 901 108 209 199 466 242 686 22 112 24 128 35 229 3 33 8
78 10 100 6 51 6 350 1 390 -2 17 -7 63 -11 103 -3 41 -8 83 -11 95 -9 46 -16
83 -19 107 -8 54 -48 209 -80 305 -33 101 -114 305 -124 315 -4 3 -19 34 -36
69 -16 36 -40 80 -52 98 -12 18 -20 33 -18 33 3 0 -36 61 -86 135 -154 228
-366 457 -559 604 -25 19 -47 37 -50 40 -3 3 -12 11 -21 16 -8 6 -64 43 -125
83 -164 110 -498 267 -654 308 -8 2 -45 12 -83 23 -37 11 -80 22 -95 25 -15 2
-52 9 -82 15 -87 17 -92 18 -150 26 -30 4 -64 9 -75 12 -23 6 -481 14 -486 9z
m369 -115 c9 -1 12 -209 12 -1006 l0 -1005 33 -1 c50 -1 86 -6 182 -24 44 -8
69 -15 121 -34 58 -22 176 -79 184 -90 3 -3 24 -18 47 -33 49 -32 167 -146
208 -201 25 -34 27 -40 15 -63 -25 -45 -165 -180 -241 -231 -160 -108 -331
-165 -501 -167 l-48 -1 0 -552 c0 -362 -3 -553 -10 -554 -19 -1 -80 -1 -87 1
-5 1 -12 1 -18 0 -18 -4 -215 -1 -223 4 -4 2 -7 248 -7 546 0 320 -3 544 -9
547 -5 4 -37 8 -70 10 -34 1 -72 6 -86 9 -14 3 -36 8 -50 10 -188 33 -431 190
-562 363 l-27 35 22 30 c38 56 140 157 207 205 128 94 289 161 429 178 25 3
53 7 61 9 8 1 31 3 51 3 l36 1 -1 1001 c-1 814 1 1002 12 1008 10 6 269 8 320
2z m-562 -361 l-1 -339 -47 -11 c-54 -11 -167 -50 -224 -76 -37 -16 -167 -90
-189 -106 -242 -179 -403 -410 -476 -682 -24 -89 -26 -101 -35 -206 -18 -205
12 -390 91 -574 l35 -82 -24 -50 c-23 -48 -70 -188 -81 -241 -6 -27 -9 -47
-20 -130 -10 -71 -5 -241 9 -328 16 -97 70 -263 109 -335 50 -93 92 -160 99
-160 4 0 8 -6 8 -13 0 -20 160 -187 227 -238 32 -24 60 -46 63 -49 5 -5 13
-10 112 -66 73 -42 167 -79 265 -105 l78 -21 -1 -399 c0 -219 -3 -401 -6 -405
-4 -3 -31 -1 -60 6 -29 6 -66 14 -83 17 -56 9 -269 74 -360 109 -86 34 -335
151 -345 164 -3 3 -27 19 -55 35 -185 106 -437 320 -596 505 -96 113 -229 296
-229 317 0 6 -4 13 -9 15 -21 8 -140 246 -204 408 -61 155 -114 352 -133 494
-3 22 -7 43 -10 47 -17 28 -25 457 -11 604 22 227 93 516 172 700 51 117 81
180 87 183 5 2 8 8 8 14 0 9 39 80 124 222 81 137 381 474 504 566 18 14 45
35 60 48 63 53 291 199 395 251 136 68 232 111 250 111 7 0 17 4 23 8 5 5 43
19 84 31 41 13 82 25 90 28 8 4 20 7 25 8 6 2 37 10 70 18 33 9 76 19 95 22
48 9 115 23 115 24 1 1 1 -152 1 -339z m909 315 c450 -88 942 -357 1270 -695
248 -255 429 -533 553 -850 70 -181 107 -319 147 -560 26 -154 26 -591 0 -712
-4 -15 -8 -40 -10 -55 -25 -201 -172 -631 -257 -755 -11 -16 -17 -28 -14 -28
4 0 -4 -17 -17 -37 -13 -21 -44 -69 -68 -108 -24 -38 -47 -74 -51 -80 -5 -5
-40 -52 -78 -103 -76 -101 -112 -142 -210 -241 -113 -114 -325 -291 -349 -291
-5 0 -11 -4 -13 -9 -5 -14 -229 -148 -311 -185 -39 -18 -99 -46 -132 -61 -59
-27 -248 -93 -288 -101 -11 -2 -34 -8 -51 -13 -25 -9 -103 -26 -208 -46 -15
-3 -17 27 -16 400 1 443 -4 407 58 419 70 14 111 29 230 83 356 163 622 525
678 923 8 59 8 273 0 330 -4 25 -12 68 -18 95 -6 28 -13 59 -16 70 -2 11 -8
29 -12 40 -5 11 -24 57 -41 101 l-33 82 20 43 c77 170 111 339 107 526 -3 121
-8 173 -19 212 -3 9 -8 30 -11 48 -3 18 -9 42 -14 55 -5 13 -9 25 -9 28 0 3
-6 19 -12 35 -86 236 -220 419 -415 566 -85 64 -147 100 -249 144 -89 38 -195
72 -232 74 -8 1 -11 101 -11 336 l0 335 36 -4 c20 -3 50 -8 66 -11z m-910
-1325 c0 -236 -2 -430 -5 -431 -77 -11 -204 -55 -302 -104 -67 -34 -178 -101
-188 -114 -3 -4 -18 -17 -35 -30 -16 -12 -60 -52 -97 -87 -54 -52 -67 -61 -71
-47 -33 116 -40 169 -41 283 0 69 3 143 6 165 23 146 90 309 175 421 73 97 96
120 250 244 39 31 263 129 298 130 7 0 11 -142 10 -430z m893 406 c184 -63
362 -195 474 -351 39 -55 121 -205 112 -205 -4 0 -2 -6 4 -12 9 -11 28 -72 33
-103 1 -5 5 -20 9 -31 11 -29 24 -146 24 -219 -1 -63 -12 -184 -19 -195 -2 -4
-7 -21 -10 -38 -3 -17 -9 -42 -14 -55 -10 -24 -11 -23 -92 54 -143 139 -323
243 -511 296 l-95 26 0 421 c0 377 1 436 11 436 1 0 35 -11 74 -24z m-1344
-1916 c119 -80 344 -177 425 -183 11 0 21 -8 23 -17 6 -24 2 -839 -3 -845 -8
-7 -134 37 -199 70 -173 87 -313 221 -414 395 -21 36 -38 66 -38 67 1 2 -6 19
-14 40 -21 48 -51 149 -59 193 -13 73 -12 266 1 335 32 171 27 168 121 75 43
-42 114 -100 157 -130z m1969 140 c22 -81 29 -134 29 -240 0 -170 -18 -255
-90 -420 -78 -178 -257 -361 -452 -460 -34 -18 -181 -70 -195 -70 -2 0 -3 193
-3 429 l0 429 21 7 c12 3 36 8 52 11 46 9 200 70 274 110 87 47 224 151 286
218 28 30 53 51 56 48 4 -4 14 -32 22 -62z m-943 -1860 l0 -408 -170 -2 c-93
0 -171 3 -171 7 -3 21 -5 789 -2 799 3 7 62 11 173 12 l170 1 0 -409z"/>
</g>
</svg>
